<svg xmlns="http://www.w3.org/2000/svg" width="600" height="600">
  <!-- blots (clusters + irregular ellipses) -->
  <ellipse cx="89" cy="156" rx="3.0" ry="1.8" fill="#3a2e1e" fill-opacity="0.3" transform="rotate(35 89 156)"/>
  <ellipse cx="91" cy="158" rx="1.5" ry="2.2" fill="#3a2e1e" fill-opacity="0.2" transform="rotate(-20 91 158)"/>

  <ellipse cx="423" cy="67" rx="2.2" ry="1.4" fill="#3a2e1e" fill-opacity="0.28" transform="rotate(60 423 67)"/>

  <ellipse cx="234" cy="489" rx="3.2" ry="1.6" fill="#3a2e1e" fill-opacity="0.32" transform="rotate(-15 234 489)"/>
  <ellipse cx="236" cy="487" rx="1.2" ry="2.0" fill="#3a2e1e" fill-opacity="0.18" transform="rotate(50 236 487)"/>
  <ellipse cx="232" cy="491" rx="1.0" ry="1.5" fill="#3a2e1e" fill-opacity="0.15"/>

  <ellipse cx="567" cy="289" rx="1.8" ry="2.5" fill="#3a2e1e" fill-opacity="0.25" transform="rotate(75 567 289)"/>

  <ellipse cx="12" cy="398" rx="2.8" ry="1.5" fill="#3a2e1e" fill-opacity="0.3" transform="rotate(-40 12 398)"/>

  <ellipse cx="301" cy="12" rx="2.0" ry="1.2" fill="#3a2e1e" fill-opacity="0.25" transform="rotate(25 301 12)"/>

  <ellipse cx="478" cy="534" rx="2.5" ry="1.3" fill="#3a2e1e" fill-opacity="0.28" transform="rotate(-55 478 534)"/>
  <ellipse cx="480" cy="536" rx="1.0" ry="1.8" fill="#3a2e1e" fill-opacity="0.16" transform="rotate(30 480 536)"/>

  <!-- spatter -->
  <ellipse cx="178" cy="23" rx="1.8" ry="1.0" fill="#3a2e1e" fill-opacity="0.2" transform="rotate(45 178 23)"/>
  <ellipse cx="356" cy="345" rx="1.2" ry="1.8" fill="#3a2e1e" fill-opacity="0.18" transform="rotate(-30 356 345)"/>
  <ellipse cx="523" cy="456" rx="1.6" ry="0.9" fill="#3a2e1e" fill-opacity="0.2" transform="rotate(70 523 456)"/>
  <ellipse cx="45" cy="89" rx="1.0" ry="1.6" fill="#3a2e1e" fill-opacity="0.18" transform="rotate(-65 45 89)"/>
  <ellipse cx="489" cy="567" rx="1.5" ry="0.8" fill="#3a2e1e" fill-opacity="0.16" transform="rotate(20 489 567)"/>
  <ellipse cx="234" cy="178" rx="1.8" ry="1.0" fill="#3a2e1e" fill-opacity="0.2" transform="rotate(-50 234 178)"/>
  <ellipse cx="567" cy="123" rx="1.0" ry="1.5" fill="#3a2e1e" fill-opacity="0.17" transform="rotate(40 567 123)"/>
  <ellipse cx="67" cy="345" rx="1.6" ry="0.9" fill="#3a2e1e" fill-opacity="0.2" transform="rotate(-25 67 345)"/>
  <ellipse cx="378" cy="34" rx="1.2" ry="1.6" fill="#3a2e1e" fill-opacity="0.17" transform="rotate(55 378 34)"/>
  <ellipse cx="145" cy="534" rx="1.5" ry="0.8" fill="#3a2e1e" fill-opacity="0.18" transform="rotate(-70 145 534)"/>
  <ellipse cx="290" cy="245" rx="1.0" ry="1.5" fill="#3a2e1e" fill-opacity="0.2" transform="rotate(15 290 245)"/>
  <ellipse cx="410" cy="178" rx="1.6" ry="0.9" fill="#3a2e1e" fill-opacity="0.16" transform="rotate(-45 410 178)"/>
  <ellipse cx="34" cy="534" rx="1.3" ry="1.7" fill="#3a2e1e" fill-opacity="0.18" transform="rotate(60 34 534)"/>
  <ellipse cx="512" cy="45" rx="1.5" ry="0.8" fill="#3a2e1e" fill-opacity="0.17" transform="rotate(-35 512 45)"/>
  <ellipse cx="178" cy="290" rx="1.0" ry="1.4" fill="#3a2e1e" fill-opacity="0.19" transform="rotate(80 178 290)"/>
  <ellipse cx="556" cy="400" rx="1.4" ry="0.8" fill="#3a2e1e" fill-opacity="0.2" transform="rotate(-60 556 400)"/>
  <ellipse cx="123" cy="100" rx="1.6" ry="1.0" fill="#3a2e1e" fill-opacity="0.16" transform="rotate(30 123 100)"/>
  <ellipse cx="445" cy="267" rx="1.0" ry="1.5" fill="#3a2e1e" fill-opacity="0.2" transform="rotate(-15 445 267)"/>
  <!-- dust -->
  <ellipse cx="123" cy="234" rx="0.9" ry="0.5" fill="#3a2e1e" fill-opacity="0.12" transform="rotate(50 123 234)"/>
  <ellipse cx="445" cy="190" rx="0.6" ry="1.0" fill="#3a2e1e" fill-opacity="0.13" transform="rotate(-40 445 190)"/>
  <ellipse cx="56" cy="512" rx="0.9" ry="0.5" fill="#3a2e1e" fill-opacity="0.1" transform="rotate(25 56 512)"/>
  <ellipse cx="312" cy="145" rx="0.5" ry="0.9" fill="#3a2e1e" fill-opacity="0.13" transform="rotate(-55 312 145)"/>
  <ellipse cx="589" cy="67" rx="0.8" ry="0.5" fill="#3a2e1e" fill-opacity="0.1" transform="rotate(70 589 67)"/>
  <ellipse cx="190" cy="400" rx="0.5" ry="0.9" fill="#3a2e1e" fill-opacity="0.12" transform="rotate(-20 190 400)"/>
  <ellipse cx="500" cy="500" rx="0.9" ry="0.5" fill="#3a2e1e" fill-opacity="0.11" transform="rotate(45 500 500)"/>
  <ellipse cx="345" cy="389" rx="0.5" ry="0.8" fill="#3a2e1e" fill-opacity="0.1" transform="rotate(-35 345 389)"/>
  <ellipse cx="478" cy="89" rx="0.8" ry="0.5" fill="#3a2e1e" fill-opacity="0.12" transform="rotate(60 478 89)"/>
  <ellipse cx="100" cy="45" rx="0.5" ry="0.9" fill="#3a2e1e" fill-opacity="0.13" transform="rotate(-50 100 45)"/>
  <ellipse cx="267" cy="578" rx="0.9" ry="0.5" fill="#3a2e1e" fill-opacity="0.1" transform="rotate(35 267 578)"/>
  <ellipse cx="534" cy="312" rx="0.5" ry="0.8" fill="#3a2e1e" fill-opacity="0.11" transform="rotate(-65 534 312)"/>
</svg>
